<svg width="180" height="123" viewBox="0 0 180 123" fill="none" xmlns="http://www.w3.org/2000/svg">
<path d="M145.888 41.1559C145.383 39.0903 144.588 37.278 143.501 35.7191C142.414 34.1212 141.056 32.7766 139.426 31.6854C137.835 30.5551 135.972 29.7172 133.838 29.1716C131.742 28.587 129.433 28.2947 126.911 28.2947C121.477 28.2947 116.84 29.6003 112.998 32.2115C109.195 34.8227 106.284 38.5837 104.266 43.4943C102.287 48.4049 101.297 54.3289 101.297 61.2662C101.297 68.2814 102.248 74.2833 104.15 79.2719C106.051 84.2605 108.884 88.0799 112.649 90.73C116.413 93.3802 121.089 94.7053 126.678 94.7053C131.606 94.7053 135.701 93.9843 138.96 92.5423C142.259 91.1003 144.723 89.0542 146.353 86.404C147.983 83.7538 148.798 80.6359 148.798 77.0504L154.387 77.635H127.143V54.4848H180V71.0875C180 82 177.691 91.3341 173.073 99.0898C168.493 106.807 162.168 112.731 154.096 116.862C146.062 120.954 136.845 123 126.445 123C114.841 123 104.654 120.525 95.8836 115.576C87.113 110.626 80.2633 103.572 75.3347 94.413C70.4449 85.2543 68 74.3612 68 61.7338C68 51.8346 69.4941 43.0656 72.4823 35.4268C75.5094 27.788 79.7006 21.3379 85.0561 16.0765C90.4116 10.7761 96.6015 6.78137 103.626 4.0922C110.65 1.36407 118.179 0 126.212 0C133.275 0 139.834 1.01331 145.888 3.03993C151.981 5.02757 157.356 7.87262 162.012 11.5751C166.708 15.2386 170.492 19.5841 173.364 24.6117C176.236 29.6393 177.982 35.154 178.603 41.1559H145.888Z" fill="#F1A999"/>
<path d="M40.2474 75.8729H0C0 101.956 13.8351 123 54.0825 123C95.5876 123 104.392 87.1834 104.392 80.4302V43.9853C104.392 38.4887 104.634 26.3912 110.052 16.3374C115.469 6.28361 122 0.46964 122 0.46964C122 0.46964 109.423 -3.30053 89.299 10.5234C69.1753 24.3474 67.9175 47.2858 67.9175 52.7823V75.8729C67.9175 75.8729 70.433 93.467 54.0825 93.467C37.732 93.467 40.2474 75.8729 40.2474 75.8729Z" fill="#DC3C19"/>
</svg>
